<?xml version="1.0" encoding="UTF-8"?>
<svg width="164px" height="164px" viewBox="0 0 164 164" version="1.1" xmlns="http://www.w3.org/2000/svg" xmlns:xlink="http://www.w3.org/1999/xlink">
    <!-- Generator: Sketch 52.5 (67469) - http://www.bohemiancoding.com/sketch -->
    <title>Artboard</title>
    <desc>Created with Sketch.</desc>
    <defs>
        <path d="M75.0761764,71.6735529 C76.3838232,71.6780676 77.1572425,71.0555328 77.3964344,69.8059485 C77.3229408,69.2467174 77.6358193,68.8999705 78.3350698,68.7657079 C78.7611786,68.6781625 79.1664546,68.3409357 79.5508978,67.7540276 C79.8379281,67.3013821 80.3193982,66.9733809 80.9953083,66.7700242 C81.4007772,66.2518177 81.5899124,65.6639281 81.562714,65.0063555 C81.5355155,64.3487829 81.7125947,64.016856 82.0939515,64.0105747 C82.2787465,64.3246392 82.4075051,63.9752424 82.4802271,62.9623843 C82.3183868,62.8292995 82.4255409,62.553806 82.8016895,62.1359039 C82.5736856,58.9483452 82.0858498,56.9615926 81.3381822,56.1756462 C80.9346423,55.5787273 80.8489961,55.046486 81.0812438,54.5789225 C81.4296152,53.8775771 80.9238401,52.9963317 80.4151714,51.7014044 C79.5629538,48.2199991 79.24506,45.8459657 79.4614901,44.5793042 C78.9397045,42.7808922 78.6788117,41.8816862 78.6788117,41.8816862 C78.5817847,40.3115598 78.0277854,38.9902315 77.0168137,37.9177011 C76.49715,36.2843693 75.9165309,34.9283957 75.2749565,33.8497803 C74.816441,33.2526651 74.8023595,32.5520068 75.2327121,31.7478053 C75.8782409,30.5415031 75.4722898,29.9337882 74.1985929,28.4589608 C73.3494616,27.4757425 73.0603094,26.5694701 73.3311364,25.7401434 C72.1918884,23.4439392 70.3182827,21.2109404 67.7103192,19.041147 C65.1023558,16.8713537 63.5008309,15.412524 62.9057445,14.6646578 C62.4076852,14.0967899 62.0196735,13.3901447 61.7417094,12.5447223 C61.4637452,11.6992998 60.3945188,10.6785901 58.53403,9.48259313 C57.7944641,9.05193214 56.6428707,8.33282252 55.07925,7.32526425 C52.733819,5.81392685 51.3559578,5.5065362 50.061428,4.55963164 C48.7668982,3.61272709 49.4740575,3.75111177 47.9434222,3.26175998 C46.4127868,2.77240819 44.0193245,0.791446173 44.0193245,0.791446173 C42.7649172,-0.133866444 40.6586781,-0.24781298 37.7006071,0.449606563 C34.9877078,0.628623344 33.4148281,1.23427716 32.9819679,2.26656801 C32.5658897,3.39994837 32.0805615,4.0905959 31.5259835,4.33851059 C31.0707473,4.61881318 31.0753768,4.99235368 31.5398721,5.45913208 C31.5560754,6.18108792 31.8398265,6.72962124 32.3911252,7.10473207 C33.4113559,7.73757209 33.83515,8.21475388 33.6625074,8.53627744 C33.0064657,8.54550309 32.4782181,8.70999439 32.0777645,9.02975133 C31.2697202,8.89489988 30.500834,8.45511139 29.7711057,7.71038588 C29.4981569,7.03711005 28.5343485,7.04741529 26.8796806,7.74130161 C25.3257047,8.17863646 24.2640977,8.85004754 23.6948595,9.75553483 C22.3569279,11.7280564 21.664043,13.3491201 21.6162046,14.6187259 C21.3650531,16.5398194 20.7391997,17.7807668 19.7386445,18.3415683 C18.2378117,19.1827705 18.8428322,18.918073 16.7662027,19.5269656 C14.8331848,19.9943329 13.5434774,20.776648 12.8970806,21.8739109 C12.2510695,22.2884761 11.6197186,22.6380692 11.0030278,22.9226902 C10.4048551,22.9613594 10.033529,23.4576795 9.88904934,24.4116505 C8.16841072,26.3843683 7.42093598,28.1002402 7.64662513,29.5592662 C5.69663232,33.8684279 4.81557662,36.906217 5.00345801,38.6726337 C4.80901813,40.7101273 4.53799826,42.0114341 4.19039839,42.5765539 C4.16262127,43.3560228 4.13590507,44.0674771 4.11024981,44.7109168 C3.40598394,47.0713081 2.7320993,48.6943347 2.08859588,49.5799966 C1.58860762,49.3536739 1.1710827,49.9919119 0.836021123,51.4947107 C0.438653908,52.2141147 0.407693987,53.0880974 0.743141359,54.1166587 C0.777091179,54.8439144 0.554970622,55.7728584 0.0767796872,56.9034907 C-0.0802382316,57.6354573 0.00357538719,58.423563 0.328220544,59.2678077 C0.229650327,60.0091963 0.415892097,60.7754156 0.886945853,61.5664656 C1.28469886,62.3025544 1.81863694,63.0480651 2.4887601,63.8029977 C3.15001001,65.1475864 3.76197481,66.1168681 4.3246545,66.7108426 C4.39313283,67.8304827 4.73214879,68.7485325 5.34170238,69.4649922 C5.47595849,70.4804021 5.94681935,71.4548855 6.75428496,72.3884423 C7.48034817,75.0387543 9.02901937,77.0926382 11.4002986,78.5500939 C10.9510422,78.7799499 11.260352,79.11541 12.3282282,79.5564744 C12.3388375,80.1080502 12.5956795,80.6774885 13.0987541,81.2647892 C13.9685253,82.2690105 14.5082503,82.9644671 14.717929,83.3511591 C15.0324471,83.931197 15.4320326,84.1564402 14.717929,85.3913026 C14.8531496,87.6606151 15.4492969,89.840223 16.5063708,91.9301261 C16.5258534,92.5822026 16.3381649,93.2399715 15.9433054,93.9034328 C15.9166856,94.1274001 16.0704243,94.724319 16.4045214,95.6941895 C17.1217113,96.5413785 16.8956364,97.8068623 15.7262966,99.4906408 C12.7616671,104.352752 12.2038098,107.969696 14.0527247,110.341472 C14.3432272,110.928184 14.275424,111.630609 13.8493152,112.448747 C13.5406804,112.866845 13.6449411,113.478192 14.1620972,114.282786 C14.121396,115.05244 13.8958997,115.823567 13.4856084,116.596165 C12.5699278,117.879904 12.5165918,118.515885 13.3256006,118.504107 C13.6261337,118.86273 14.1127156,119.034975 14.7853464,119.020842 C16.8393106,119.513334 18.1294037,120.207024 18.6556259,121.101912 C19.0155712,122.316556 19.851682,123.061871 21.1639583,123.337855 C21.1456331,124.226657 21.4565826,124.903368 22.0968067,125.367988 C22.2580684,125.936444 22.0369123,126.483113 21.4333385,127.007993 C20.7736318,127.741334 20.8944816,128.642994 21.7958879,129.712972 C21.9920638,130.064528 21.9132655,130.584305 21.559493,131.272303 C21.2207663,131.626018 21.428709,132.304593 22.1833209,133.30803 C23.6682397,137.525327 24.4106992,139.633976 24.4106992,139.633976 C24.6230784,140.792874 25.2888614,141.813486 26.4080481,142.695811 C27.6958265,142.69954 28.7369865,143.199394 29.531528,144.195371 C31.6358382,146.729479 33.2752673,148.268199 34.4498153,148.811531 C37.0028032,149.728795 38.7314471,150.554785 39.6357468,151.2895 C40.9921965,152.391572 40.9204389,151.342204 41.7245288,152.391572 C42.5286187,153.44094 43.4273245,153.814579 44.0193245,154.265359 C44.4139911,154.56588 44.5278002,155.009103 44.3607517,155.59503 C44.305969,156.834211 44.5409172,157.485306 45.0655962,157.548315 C45.8526148,157.642829 46.7539246,157.85865 46.983954,157.112256 C47.2139833,156.365862 47.3418738,156.447421 49.197733,156.779838 C51.0535922,157.112256 51.665557,157.548315 53.3724035,157.548315 C53.9383625,158.096358 54.971903,158.428775 56.4730252,158.545568 C58.7247084,158.720757 61.1433438,159.054058 61.7417094,158.992521 C61.6707234,158.606025 62.1809352,158.512297 63.2723447,158.711335 C67.6024135,159.300206 70.5885127,158.109509 72.2306424,155.139244 C72.5399323,154.646734 73.3952745,154.502354 74.7966691,154.706103 C75.8908826,154.866882 76.5490979,154.767666 76.7713149,154.408455 C77.3288758,153.967391 77.8501275,153.919692 78.3350698,154.265359 C78.6487199,154.190769 78.9739437,153.949037 79.3107414,153.540165 C79.6930626,152.998403 80.226422,153.010279 80.9108195,153.575791 C81.4754282,154.339164 82.2501014,154.473231 83.2348391,153.97799 C84.105189,153.677862 85.0191336,154.064947 85.9766728,155.139244 C87.8240446,155.552435 89.1999768,155.308839 90.1044694,154.408455 C91.1154411,154.320124 91.6073277,153.465869 91.5801292,151.845688 C91.8847131,150.793965 93.0253114,149.719079 95.0019239,148.621031 C96.2110005,148.300096 96.7112781,147.407662 96.5027567,145.943729 C96.8582654,144.632706 96.9620438,143.697971 96.814092,143.139525 C96.5921644,142.301856 99.5900685,142.369576 96.814092,140.16661 C95.5128108,137.777168 94.8985313,135.975419 94.9712533,134.761363 C95.0803364,132.94028 93.9507333,132.092894 93.9507333,132.092894 C93.0367887,130.088574 92.966285,127.927123 93.7392221,125.608541 C93.9766779,125.16787 93.9472612,124.56673 93.6509718,123.805124 C93.871067,122.663303 94.5458197,121.739855 95.6752299,121.03478 C96.214762,121.192794 96.7306642,120.525603 97.2229366,119.033208 C98.0005032,117.143128 97.9624061,116.171687 97.1086453,116.118885 C96.0207079,115.691758 95.2180647,115.616578 94.7007157,115.893348 C93.4029067,115.568291 91.9850194,114.679096 90.447054,113.225762 C89.476012,112.357766 87.7891303,110.972545 85.3864089,109.0701 C83.2437123,107.923175 82.3313109,106.674867 82.6492047,105.325175 C82.1586683,104.297006 82.4950802,103.591244 83.6584402,103.207889 C84.7311388,102.31889 85.3099254,101.501831 85.3947999,100.756713 C85.895174,100.461296 86.2171186,100.083732 86.3606337,99.62402 C86.8876275,99.57534 87.3542447,99.3920049 87.7604851,99.0740145 C88.0891811,98.6203876 88.720532,98.4609998 89.6545379,98.5958513 C90.4976894,98.6722082 90.9125137,98.4823955 90.899011,98.026413 C92.1360576,97.5555125 92.8332827,96.77359 92.9906864,95.6806454 C93.7593798,94.9153094 94.7426707,94.5645386 95.9405593,94.628333 C96.6934351,95.1039445 96.8774586,94.7850708 96.4926297,93.6717121 C95.9208838,92.0903972 94.8314997,90.6699422 93.2244772,89.4103471 C92.7015342,89.1349518 91.9985222,88.3173044 91.1154411,86.957405 C90.7373635,86.0083413 90.3541742,85.4175074 89.9658732,85.1849033 C89.3834216,84.8359973 90.5109993,83.2289683 88.4358165,82.4531308 C85.5626201,80.6019167 81.9412737,79.6483383 77.5717776,79.5923955 C76.3206495,79.1858783 75.4540611,78.2913832 74.9720122,76.9089104 C74.3555143,75.1087318 74.2970666,73.6896509 74.7966691,72.6516676 C75.2962716,71.6136843 75.3894407,71.2876461 75.0761764,71.6735529 Z" id="path-1"></path>
    </defs>
    <g id="Page-1" stroke="none" stroke-width="1" fill="none" fill-rule="evenodd">
        <g id="Artboard" transform="translate(-12.000000, -18.000000)">
            <g id="Group-2" transform="translate(35.000000, 20.000000)">
                <circle id="Oval" fill="#EEEEEE" fill-rule="nonzero" cx="58.5" cy="79.5" r="58.5"></circle>
                <g id="Path-5" transform="translate(12.000000, 0.000000)">
                    <mask id="mask-2" fill="white">
                        <use xlink:href="#path-1"></use>
                    </mask>
                    <use id="Mask" fill="#E6EEDE" xlink:href="#path-1"></use>
                    <path d="M-69.0385645,199.099857 C50.5783445,162.447568 89.7514386,96.0809488 48.4807178,-3.55271368e-14 C7.20999696,-96.0809488 46.383091,-41.4023031 166,164.035937 L-69.0385645,199.099857 Z" fill="#CDD9C1" fill-rule="nonzero" mask="url(#mask-2)"></path>
                </g>
                <path d="M87.0761764,71.6735529 C88.3838232,71.6780676 89.1572425,71.0555328 89.3964344,69.8059485 C89.3229408,69.2467174 89.6358193,68.8999705 90.3350698,68.7657079 C90.7611786,68.6781625 91.1664546,68.3409357 91.5508978,67.7540276 C91.8379281,67.3013821 92.3193982,66.9733809 92.9953083,66.7700242 C93.4007772,66.2518177 93.5899124,65.6639281 93.562714,65.0063555 C93.5355155,64.3487829 93.7125947,64.016856 94.0939515,64.0105747 C94.2787465,64.3246392 94.4075051,63.9752424 94.4802271,62.9623843 C94.3183868,62.8292995 94.4255409,62.553806 94.8016895,62.1359039 C94.5736856,58.9483452 94.0858498,56.9615926 93.3381822,56.1756462 C92.9346423,55.5787273 92.8489961,55.046486 93.0812438,54.5789225 C93.4296152,53.8775771 92.9238401,52.9963317 92.4151714,51.7014044 C91.5629538,48.2199991 91.24506,45.8459657 91.4614901,44.5793042 C90.9397045,42.7808922 90.6788117,41.8816862 90.6788117,41.8816862 C90.5817847,40.3115598 90.0277854,38.9902315 89.0168137,37.9177011 C88.49715,36.2843693 87.9165309,34.9283957 87.2749565,33.8497803 C86.816441,33.2526651 86.8023595,32.5520068 87.2327121,31.7478053 C87.8782409,30.5415031 87.4722898,29.9337882 86.1985929,28.4589608 C85.3494616,27.4757425 85.0603094,26.5694701 85.3311364,25.7401434 C84.1918884,23.4439392 82.3182827,21.2109404 79.7103192,19.041147 C77.1023558,16.8713537 75.5008309,15.412524 74.9057445,14.6646578 C74.4076852,14.0967899 74.0196735,13.3901447 73.7417094,12.5447223 C73.4637452,11.6992998 72.3945188,10.6785901 70.53403,9.48259313 C69.7944641,9.05193214 68.6428707,8.33282252 67.07925,7.32526425 C64.733819,5.81392685 63.3559578,5.5065362 62.061428,4.55963164 C60.7668982,3.61272709 61.4740575,3.75111177 59.9434222,3.26175998 C58.4127868,2.77240819 56.0193245,0.791446173 56.0193245,0.791446173 C54.7649172,-0.133866444 52.6586781,-0.24781298 49.7006071,0.449606563 C46.9877078,0.628623344 45.4148281,1.23427716 44.9819679,2.26656801 C44.5658897,3.39994837 44.0805615,4.0905959 43.5259835,4.33851059 C43.0707473,4.61881318 43.0753768,4.99235368 43.5398721,5.45913208 C43.5560754,6.18108792 43.8398265,6.72962124 44.3911252,7.10473207 C45.4113559,7.73757209 45.83515,8.21475388 45.6625074,8.53627744 C45.0064657,8.54550309 44.4782181,8.70999439 44.0777645,9.02975133 C43.2697202,8.89489988 42.500834,8.45511139 41.7711057,7.71038588 C41.4981569,7.03711005 40.5343485,7.04741529 38.8796806,7.74130161 C37.3257047,8.17863646 36.2640977,8.85004754 35.6948595,9.75553483 C34.3569279,11.7280564 33.664043,13.3491201 33.6162046,14.6187259 C33.3650531,16.5398194 32.7391997,17.7807668 31.7386445,18.3415683 C30.2378117,19.1827705 30.8428322,18.918073 28.7662027,19.5269656 C26.8331848,19.9943329 25.5434774,20.776648 24.8970806,21.8739109 C24.2510695,22.2884761 23.6197186,22.6380692 23.0030278,22.9226902 C22.4048551,22.9613594 22.033529,23.4576795 21.8890493,24.4116505 C20.1684107,26.3843683 19.420936,28.1002402 19.6466251,29.5592662 C17.6966323,33.8684279 16.8155766,36.906217 17.003458,38.6726337 C16.8090181,40.7101273 16.5379983,42.0114341 16.1903984,42.5765539 C16.1626213,43.3560228 16.1359051,44.0674771 16.1102498,44.7109168 C15.4059839,47.0713081 14.7320993,48.6943347 14.0885959,49.5799966 C13.5886076,49.3536739 13.1710827,49.9919119 12.8360211,51.4947107 C12.4386539,52.2141147 12.407694,53.0880974 12.7431414,54.1166587 C12.7770912,54.8439144 12.5549706,55.7728584 12.0767797,56.9034907 C11.9197618,57.6354573 12.0035754,58.423563 12.3282205,59.2678077 C12.2296503,60.0091963 12.4158921,60.7754156 12.8869459,61.5664656 C13.2846989,62.3025544 13.8186369,63.0480651 14.4887601,63.8029977 C15.15001,65.1475864 15.7619748,66.1168681 16.3246545,66.7108426 C16.3931328,67.8304827 16.7321488,68.7485325 17.3417024,69.4649922 C17.4759585,70.4804021 17.9468194,71.4548855 18.754285,72.3884423 C19.4803482,75.0387543 21.0290194,77.0926382 23.4002986,78.5500939 C22.9510422,78.7799499 23.260352,79.11541 24.3282282,79.5564744 C24.3388375,80.1080502 24.5956795,80.6774885 25.0987541,81.2647892 C25.9685253,82.2690105 26.5082503,82.9644671 26.717929,83.3511591 C27.0324471,83.931197 27.4320326,84.1564402 26.717929,85.3913026 C26.8531496,87.6606151 27.4492969,89.840223 28.5063708,91.9301261 C28.5258534,92.5822026 28.3381649,93.2399715 27.9433054,93.9034328 C27.9166856,94.1274001 28.0704243,94.724319 28.4045214,95.6941895 C29.1217113,96.5413785 28.8956364,97.8068623 27.7262966,99.4906408 C24.7616671,104.352752 24.2038098,107.969696 26.0527247,110.341472 C26.3432272,110.928184 26.275424,111.630609 25.8493152,112.448747 C25.5406804,112.866845 25.6449411,113.478192 26.1620972,114.282786 C26.121396,115.05244 25.8958997,115.823567 25.4856084,116.596165 C24.5699278,117.879904 24.5165918,118.515885 25.3256006,118.504107 C25.6261337,118.86273 26.1127156,119.034975 26.7853464,119.020842 C28.8393106,119.513334 30.1294037,120.207024 30.6556259,121.101912 C31.0155712,122.316556 31.851682,123.061871 33.1639583,123.337855 C33.1456331,124.226657 33.4565826,124.903368 34.0968067,125.367988 C34.2580684,125.936444 34.0369123,126.483113 33.4333385,127.007993 C32.7736318,127.741334 32.8944816,128.642994 33.7958879,129.712972 C33.9920638,130.064528 33.9132655,130.584305 33.559493,131.272303 C33.2207663,131.626018 33.428709,132.304593 34.1833209,133.30803 C35.6682397,137.525327 36.4106992,139.633976 36.4106992,139.633976 C36.6230784,140.792874 37.2888614,141.813486 38.4080481,142.695811 C39.6958265,142.69954 40.7369865,143.199394 41.531528,144.195371 C43.6358382,146.729479 45.2752673,148.268199 46.4498153,148.811531 C49.0028032,149.728795 50.7314471,150.554785 51.6357468,151.2895 C52.9921965,152.391572 52.9204389,151.342204 53.7245288,152.391572 C54.5286187,153.44094 55.4273245,153.814579 56.0193245,154.265359 C56.4139911,154.56588 56.5278002,155.009103 56.3607517,155.59503 C56.305969,156.834211 56.5409172,157.485306 57.0655962,157.548315 C57.8526148,157.642829 58.7539246,157.85865 58.983954,157.112256 C59.2139833,156.365862 59.3418738,156.447421 61.197733,156.779838 C63.0535922,157.112256 63.665557,157.548315 65.3724035,157.548315 C65.9383625,158.096358 66.971903,158.428775 68.4730252,158.545568 C70.7247084,158.720757 73.1433438,159.054058 73.7417094,158.992521 C73.6707234,158.606025 74.1809352,158.512297 75.2723447,158.711335 C79.6024135,159.300206 82.5885127,158.109509 84.2306424,155.139244 C84.5399323,154.646734 85.3952745,154.502354 86.7966691,154.706103 C87.8908826,154.866882 88.5490979,154.767666 88.7713149,154.408455 C89.3288758,153.967391 89.8501275,153.919692 90.3350698,154.265359 C90.6487199,154.190769 90.9739437,153.949037 91.3107414,153.540165 C91.6930626,152.998403 92.226422,153.010279 92.9108195,153.575791 C93.4754282,154.339164 94.2501014,154.473231 95.2348391,153.97799 C96.105189,153.677862 97.0191336,154.064947 97.9766728,155.139244 C99.8240446,155.552435 101.199977,155.308839 102.104469,154.408455 C103.115441,154.320124 103.607328,153.465869 103.580129,151.845688 C103.884713,150.793965 105.025311,149.719079 107.001924,148.621031 C108.211,148.300096 108.711278,147.407662 108.502757,145.943729 C108.858265,144.632706 108.962044,143.697971 108.814092,143.139525 C108.592164,142.301856 111.590069,142.369576 108.814092,140.16661 C107.512811,137.777168 106.898531,135.975419 106.971253,134.761363 C107.080336,132.94028 105.950733,132.092894 105.950733,132.092894 C105.036789,130.088574 104.966285,127.927123 105.739222,125.608541 C105.976678,125.16787 105.947261,124.56673 105.650972,123.805124 C105.871067,122.663303 106.54582,121.739855 107.67523,121.03478 C108.214762,121.192794 108.730664,120.525603 109.222937,119.033208 C110.000503,117.143128 109.962406,116.171687 109.108645,116.118885 C108.020708,115.691758 107.218065,115.616578 106.700716,115.893348 C105.402907,115.568291 103.985019,114.679096 102.447054,113.225762 C101.476012,112.357766 99.7891303,110.972545 97.3864089,109.0701 C95.2437123,107.923175 94.3313109,106.674867 94.6492047,105.325175 C94.1586683,104.297006 94.4950802,103.591244 95.6584402,103.207889 C96.7311388,102.31889 97.3099254,101.501831 97.3947999,100.756713 C97.895174,100.461296 98.2171186,100.083732 98.3606337,99.62402 C98.8876275,99.57534 99.3542447,99.3920049 99.7604851,99.0740145 C100.089181,98.6203876 100.720532,98.4609998 101.654538,98.5958513 C102.497689,98.6722082 102.912514,98.4823955 102.899011,98.026413 C104.136058,97.5555125 104.833283,96.77359 104.990686,95.6806454 C105.75938,94.9153094 106.742671,94.5645386 107.940559,94.628333 C108.693435,95.1039445 108.877459,94.7850708 108.49263,93.6717121 C107.920884,92.0903972 106.8315,90.6699422 105.224477,89.4103471 C104.701534,89.1349518 103.998522,88.3173044 103.115441,86.957405 C102.737364,86.0083413 102.354174,85.4175074 101.965873,85.1849033 C101.383422,84.8359973 102.510999,83.2289683 100.435816,82.4531308 C97.5626201,80.6019167 93.9412737,79.6483383 89.5717776,79.5923955 C88.3206495,79.1858783 87.4540611,78.2913832 86.9720122,76.9089104 C86.3555143,75.1087318 86.2970666,73.6896509 86.7966691,72.6516676 C87.2962716,71.6136843 87.3894407,71.2876461 87.0761764,71.6735529 Z" id="Path-Copy-2" stroke="#0A0A0A" stroke-width="1.5"></path>
            </g>
        </g>
    </g>
</svg>