<?xml version="1.0" encoding="UTF-8"?>
<svg width="164px" height="164px" viewBox="0 0 164 164" version="1.1" xmlns="http://www.w3.org/2000/svg" xmlns:xlink="http://www.w3.org/1999/xlink">
    <!-- Generator: Sketch 52.5 (67469) - http://www.bohemiancoding.com/sketch -->
    <title>Artboard</title>
    <desc>Created with Sketch.</desc>
    <defs>
        <path d="M66.3405172,63.5516905 L66.3405172,47 L84.6594828,47 L84.6594828,62.8076707 C85.8110033,63.1455594 86.9323548,63.5540013 88.0185381,64.0279971 L99.0753058,52.9712294 L112.028771,65.9246942 L101.590971,76.3624935 C102.297155,77.6321976 102.909387,78.9613373 103.418271,80.3405172 L118,80.3405172 L118,98.6594828 L103.914029,98.6594828 C103.434414,100.215946 102.825421,101.715684 102.099604,103.14614 L112.028771,113.075306 L99.0753058,126.028771 L89.022505,115.97597 C87.6275536,116.650395 86.1694555,117.214778 84.6594828,117.657847 L84.6594828,132 L66.3405172,132 L66.3405172,116.913827 C65.0920295,116.433487 63.885779,115.86804 62.7288728,115.224592 L51.9246942,126.028771 L38.9712294,113.075306 L50.3943764,101.652159 C49.9707923,100.681496 49.5995597,99.6827483 49.2842464,98.6594828 L33,98.6594828 L33,80.3405172 L49.7800047,80.3405172 C50.0988454,79.4763944 50.4582564,78.6319156 50.8559268,77.8093915 L38.9712294,65.9246942 L51.9246942,52.9712294 L63.685757,64.7322923 C64.5465036,64.2955476 65.4323356,63.9011018 66.3405172,63.5516905 Z M77,104 C84.7319865,104 91,97.7319865 91,90 C91,82.2680135 84.7319865,76 77,76 C69.2680135,76 63,82.2680135 63,90 C63,97.7319865 69.2680135,104 77,104 Z M18.0711449,15.4995173 L14.208337,4.88653989 L25.9544947,0.611288101 L29.6436644,10.7471985 C30.4608777,10.6951134 31.2752121,10.6953079 32.0822954,10.7457432 L36.5915059,1.07571004 L47.9203533,6.35843831 L43.6635727,15.4871338 C44.4127006,16.1364626 45.1154574,16.8458279 45.7636261,17.6113982 L55.1134601,14.208337 L59.3887119,25.9544947 L50.3567591,29.2418567 C50.4124739,30.3517959 50.3719923,31.4555567 50.240435,32.5421579 L58.92429,36.5915059 L53.6415617,47.9203533 L44.8495784,43.8205841 C44.112529,44.5785785 43.3093084,45.2807506 42.4445135,45.9172423 L45.791663,55.1134601 L34.0455053,59.3887119 L30.5247175,49.7154271 C29.6120837,49.6988024 28.7066702,49.6177493 27.8146928,49.4751663 L23.4084941,58.92429 L12.0796467,53.6415617 L16.7382754,43.6511004 C16.2401407,43.127565 15.7690193,42.5738035 15.3280316,41.9912708 L4.88653989,45.791663 L0.611288101,34.0455053 L11.3706611,30.1294138 C11.3734347,29.5009259 11.4068066,28.8755656 11.4698343,28.2553538 L1.07571004,23.4084941 L6.35843831,12.0796467 L16.6444342,16.8760854 C17.0944199,16.3951642 17.570362,15.9355106 18.0711449,15.4995173 Z M34.8297404,38.883896 C39.7600305,37.0894172 42.3021077,31.6379148 40.5076289,26.7076247 C38.7131501,21.7773346 33.2616477,19.2352574 28.3313576,21.0297362 C23.4010676,22.824215 20.8589903,28.2757174 22.6534691,33.2060075 C24.4479479,38.1362975 29.8994503,40.6783748 34.8297404,38.883896 Z" id="path-1"></path>
    </defs>
    <g id="Page-1" stroke="none" stroke-width="1" fill="none" fill-rule="evenodd">
        <g id="Artboard" transform="translate(-470.000000, -18.000000)">
            <g id="Group-4" transform="translate(493.000000, 41.000000)">
                <circle id="Oval" fill="#EEEEEE" fill-rule="nonzero" cx="59.5" cy="59.5" r="58.5"></circle>
                <g id="Path-5">
                    <mask id="mask-2" fill="white">
                        <use xlink:href="#path-1"></use>
                    </mask>
                    <use id="Mask" fill="#E6EEDE" fill-rule="nonzero" xlink:href="#path-1"></use>
                    <path d="M-119,195.025037 C30.6434607,158.372748 79.6498882,92.0061289 28.0192822,-4.07481984 C-23.6113237,-100.155769 49.2587083,-42.2593081 246.629378,169.614562 L-119,195.025037 Z" fill="#CDD9C1" fill-rule="nonzero" mask="url(#mask-2)"></path>
                </g>
                <path d="M51.9246942,54.0318896 L40.0318896,65.9246942 L51.7631612,77.6559658 L51.5311508,78.1358459 C51.1426304,78.9394447 50.7929905,79.7617249 50.4836352,80.6001402 L50.3026978,81.0905172 L33.75,81.0905172 L33.75,97.9094828 L49.8379382,97.9094828 L50.0009895,98.4386225 C50.306628,99.430491 50.6675552,100.402983 51.0817752,101.352187 L51.2863092,101.820886 L40.0318896,113.075306 L51.9246942,124.96811 L62.5987698,114.294035 L63.0934176,114.569148 C64.2250787,115.198555 65.3998293,115.748315 66.6098259,116.213846 L67.0905172,116.398786 L67.0905172,131.25 L83.9094828,131.25 L83.9094828,117.096297 L84.4483146,116.938188 C85.9092467,116.509509 87.3292851,115.961544 88.6960506,115.300746 L89.1759308,115.068735 L99.0753058,124.96811 L110.96811,113.075306 L101.18465,103.291845 L101.430776,102.806775 C102.141946,101.405184 102.73325,99.944528 103.197286,98.4386225 L103.360338,97.9094828 L117.25,97.9094828 L117.25,81.0905172 L102.895578,81.0905172 L102.714641,80.6001402 C102.221709,79.264197 101.626674,77.9697071 100.935527,76.7270382 L100.660414,76.2323905 L110.96811,65.9246942 L99.0753058,54.0318896 L88.1872656,64.9199299 L87.7185665,64.7153959 C86.6557646,64.2516034 85.5638559,63.8546603 84.4483146,63.527329 L83.9094828,63.3692204 L83.9094828,47.75 L67.0905172,47.75 L67.0905172,64.0667312 L66.6098259,64.2516711 C65.7287052,64.5906711 64.8661314,64.9743907 64.0251219,65.4011207 L63.5400512,65.6472466 L51.9246942,54.0318896 Z M77,104.75 C68.8537999,104.75 62.25,98.1462001 62.25,90 C62.25,81.8537999 68.8537999,75.25 77,75.25 C85.1462001,75.25 91.75,81.8537999 91.75,90 C91.75,98.1462001 85.1462001,104.75 77,104.75 Z M6.72120546,13.0763413 L2.07240458,23.0457269 L12.2698811,27.8008883 L12.2159913,28.3311804 C12.1551906,28.9294785 12.1233109,29.5306376 12.1206538,30.1327237 L12.118347,30.6554117 L1.57257267,34.4937596 L5.33479425,44.8303785 L15.5918166,41.0971276 L15.9260112,41.5385895 C16.3480623,42.0961075 16.8006532,42.6286203 17.2816226,43.134115 L17.6341262,43.5045933 L13.0763413,53.2787945 L23.0457269,57.9275954 L27.3741667,48.6452264 L27.9330777,48.7345686 C28.794607,48.8722844 29.6650463,48.9496427 30.5383774,48.9655515 L31.0533327,48.974932 L34.4937596,58.4274273 L44.8303785,54.6652057 L41.5476827,45.6460733 L41.9999427,45.3132085 C42.8260714,44.7051753 43.5988281,44.0310411 44.3118714,43.2977351 L44.683459,42.9155879 L53.2787945,46.9236587 L57.9275954,36.9542731 L49.4304935,32.9920094 L49.4958722,32.4520119 C49.6231492,31.4007648 49.6609258,30.3397663 49.6077022,29.2794566 L49.5799439,28.726461 L58.4274273,25.5062404 L54.6652057,15.1696215 L45.5289704,18.4949393 L45.1912259,18.0960198 C44.5713056,17.3638144 43.8962841,16.6813704 43.1723382,16.0538689 L42.7446371,15.6831463 L46.9236587,6.72120546 L36.9542731,2.07240458 L32.5459063,11.5261776 L32.0355185,11.494283 C31.2557846,11.4455568 30.4730362,11.4458602 29.6913689,11.4956799 L29.1309563,11.5313978 L25.5062404,1.57257267 L15.1696215,5.33479425 L18.9520686,15.7269822 L18.5636197,16.065175 C18.0838943,16.4828351 17.6262111,16.9245383 17.1920857,17.3885089 L16.8204483,17.7856956 L6.72120546,13.0763413 Z M35.0862555,39.5886655 C29.766732,41.5248137 23.8848479,38.7820461 21.9486996,33.4625226 C20.0125514,28.142999 22.755319,22.261115 28.0748425,20.3249667 C33.394366,18.3888185 39.2762501,21.1315861 41.2123984,26.4511096 C43.1485466,31.7706331 40.405779,37.6525172 35.0862555,39.5886655 Z" id="Combined-Shape" stroke="#000000" stroke-width="1.5" fill-rule="nonzero"></path>
            </g>
        </g>
    </g>
</svg>