<?xml version="1.0" encoding="UTF-8"?>
<svg width="164px" height="164px" viewBox="0 0 164 164" version="1.1" xmlns="http://www.w3.org/2000/svg" xmlns:xlink="http://www.w3.org/1999/xlink">
    <!-- Generator: Sketch 52.5 (67469) - http://www.bohemiancoding.com/sketch -->
    <title>Artboard</title>
    <desc>Created with Sketch.</desc>
    <defs>
        <path d="M0.754290025,155.955558 C21.8916988,140.205388 29.6402687,129.155734 24,122.806597 C0.358191307,96.1799637 -3.37846692,74.4782115 12.7900253,57.7013402 C39.9111502,34.911499 51.9892806,15.8625802 49.0244163,0.554583883 C73.8989572,21.3023524 86.7241518,43.6487606 87.5,67.5938086 C87.5409136,95.219811 77.2597234,112.569292 56.6564292,119.642252 C36.053135,126.715213 24.500992,138.819648 22,155.955558 C7.83619335,155.955558 0.754290025,155.955558 0.754290025,155.955558 Z" id="path-1"></path>
    </defs>
    <g id="Page-1" stroke="none" stroke-width="1" fill="none" fill-rule="evenodd">
        <g id="Artboard" transform="translate(-241.000000, -18.000000)">
            <g id="Group-3" transform="translate(264.000000, 20.000000)">
                <circle id="Oval" fill="#EEEEEE" fill-rule="nonzero" cx="58.5" cy="80.5" r="58.5"></circle>
                <g id="Group" transform="translate(14.000000, 0.000000)">
                    <mask id="mask-2" fill="white">
                        <use xlink:href="#path-1"></use>
                    </mask>
                    <use id="Path-4" fill="#E6EEDE" fill-rule="nonzero" xlink:href="#path-1"></use>
                    <path d="M-77,190.025037 C42.616909,153.372748 81.790003,87.0061289 40.5192822,-9.07481984 C-0.751438564,-105.155769 38.4216555,-50.4771229 158.038564,154.961117 L-77,190.025037 Z" id="Path-5" fill="#CDD9C1" fill-rule="nonzero" mask="url(#mask-2)"></path>
                </g>
                <path d="M14.75429,155.955558 C35.8916988,140.205388 43.6402687,129.155734 38,122.806597 C14.3581913,96.1799637 10.6215331,74.4782115 26.7900253,57.7013402 C53.9111502,34.911499 65.9892806,15.8625802 63.0244163,0.554583883 C87.8989572,21.3023524 100.724152,43.6487606 101.5,67.5938086 C101.540914,95.219811 91.2597234,112.569292 70.6564292,119.642252 C50.053135,126.715213 38.500992,138.819648 36,155.955558 C21.8361934,155.955558 14.75429,155.955558 14.75429,155.955558 Z" id="Path-4" stroke="#000000" stroke-width="1.5" fill-rule="nonzero"></path>
            </g>
        </g>
    </g>
</svg>